<?xml version="1.0" ?><svg fill="#1D79BE" viewBox="0 0 48 48" xmlns="http://www.w3.org/2000/svg"><title/><g id="Doctor"><path d="M28,26.92c0-3.65.06-4.23-.15-4.44C27.52,21.82,27,22,21,22a1.08,1.08,0,0,0-1,.73c0,.55,0-1.7,0,4.19A7.94,7.94,0,0,0,28,26.92Z"/><path d="M15,19c0,2.92.46,5.43,3,7.69V23l-3-6.67V13h.69l3.45,7.66C20.22,19.79,20.67,20,27,20a3,3,0,0,1,1.86.65L32.31,13H33v3.32L30,23v3.7A8.94,8.94,0,0,0,33,20V19c1.19,0,2.14.1,3.12-.88A3,3,0,0,0,34,13L32.53,4.89a4,4,0,0,0-3.44-3.25C23,.87,25.32.83,18.91,1.64a4,4,0,0,0-3.44,3.25L14,13a3,3,0,0,0-2.12,5.12A3.76,3.76,0,0,0,15,19Zm6.29-1.29c-.11-.11-.28-.28-.6,0a1,1,0,0,1-1.4,0c-1.21-1.28,1.62-3.18,3.42-1.4A1,1,0,0,1,21.29,17.71Zm6,0c-.11-.11-.28-.28-.6,0a1,1,0,0,1-1.4,0c-1.21-1.28,1.62-3.18,3.42-1.4A1,1,0,0,1,27.29,17.71ZM22,6h1V5a1,1,0,0,1,2,0V6h1a1,1,0,0,1,0,2H25V9a1,1,0,0,1-2,0V8H22A1,1,0,0,1,22,6Z"/><rect height="2" width="4" x="33" y="45"/><path d="M44,47l-1-5.47A10,10,0,0,0,36.76,34l-5.89-2.26L26.1,47H31V44a1,1,0,0,1,1-1h2V42a1,1,0,0,1,2,0v1h2a1,1,0,0,1,1,1v3Z"/><path d="M11.24,34A10,10,0,0,0,5,41.53L4,47H21.9L17.13,31.72Z"/><path d="M19.71,30.05a4.34,4.34,0,1,0,8.62.95,8.34,8.34,0,0,0-.18-1.92,9.8,9.8,0,0,1-8.3,0Z"/><path d="M20.56,36,24,47l3.44-11A6.31,6.31,0,0,1,20.56,36Z"/></g></svg>