<?xml version="1.0" ?><svg id="outine" viewBox="0 0 48 48" xmlns="http://www.w3.org/2000/svg"><title/><path d="M37.732,42.624H34.7l-3-5.323c3.176-3.023,4.788-6.457,4.788-10.206,0-10.536-7.67-16.87-8-17.135a.753.753,0,0,0-.472-.167H22.177v-2.9a.75.75,0,0,0-.75-.75h-.373V.75A.75.75,0,0,0,20.3,0H16.27a.75.75,0,0,0-.75.75V6.139h-.374a.75.75,0,0,0-.75.75V20.358l-2.844-1.141a.75.75,0,1,0-.558,1.392l1.8.723-1.787,2.817A2.184,2.184,0,0,0,12.847,27.5a2.23,2.23,0,0,0,.478-.053,2.169,2.169,0,0,0,1.369-.961l1.172-1.847v1.224a2.183,2.183,0,1,0,4.365,0V24.316l1.306.524a.744.744,0,0,0,.279.054.75.75,0,0,0,.28-1.446L19,22.207h9.47A2.234,2.234,0,0,1,30.7,24.438V28.7a2.234,2.234,0,0,1-2.231,2.231h-18.2a.75.75,0,0,0-.75.75v2.35a.75.75,0,0,0,.75.75h8.615a.75.75,0,0,0,0-1.5H11.018v-.85h9.659V42.624H15.811a.75.75,0,0,0,0,1.5H36.982V46.5H11.018V44.124h2.339a.75.75,0,0,0,0-1.5H10.268a.75.75,0,0,0-.75.75V47.25a.75.75,0,0,0,.75.75H37.732a.75.75,0,0,0,.75-.75V43.374A.75.75,0,0,0,37.732,42.624Zm-24.3-16.94a.683.683,0,0,1-1.153-.731L14.21,21.9l1.29.519Zm8-14.427a2.005,2.005,0,1,1-2,2.005A2.007,2.007,0,0,1,21.427,11.257ZM17.02,1.5h2.534V6.139H17.02Zm1.711,24.365a.683.683,0,1,1-1.365,0v-2.7l1.365.547Zm6.156,9.768v6.991h-2.71V32.43h6.3A3.736,3.736,0,0,0,32.2,28.7V24.438a3.735,3.735,0,0,0-3.731-3.731h-6.3v-2.4a.75.75,0,1,0-1.5,0v2.4H15.9V7.639h4.781v2.2a3.505,3.505,0,1,0,3.647,1.451h3.413c1.172,1.042,7.247,6.876,7.247,15.8a12.31,12.31,0,0,1-4.055,8.846L30,34.292a2.732,2.732,0,0,0-5.113,1.341Zm1.5,6.991V35.633a1.232,1.232,0,0,1,2.306-.605l4.281,7.6Z"/><path d="M27.618,35.132a.726.726,0,1,0,.725.725A.725.725,0,0,0,27.618,35.132Z"/><path d="M27.618,15.267a2.412,2.412,0,1,0,2.412,2.412A2.415,2.415,0,0,0,27.618,15.267Zm0,3.324a.912.912,0,1,1,.912-.912A.913.913,0,0,1,27.618,18.591Z"/></svg>