<?xml version='1.0' encoding='utf-8'?>
<!DOCTYPE svg PUBLIC '-//W3C//DTD SVG 1.1//EN' 'http://www.w3.org/Graphics/SVG/1.1/DTD/svg11.dtd'>
<svg fill="#1D79BE" version="1.1" xmlns="http://www.w3.org/2000/svg" viewBox="0 0 512 512" xmlns:xlink="http://www.w3.org/1999/xlink" enable-background="new 0 0 512 512">
  <g>
    <path d="m500.4,439.2c-6.4-43.3-18.2-107.9-37.4-169.7-24.8-79.6-55.8-134.3-92.3-162.7-8.3-6.5-18.3-9.9-28.7-9.9-25.7,0-46.7,20.7-46.7,46.2v103.6l-18.6-19.3v-196.1c0-11.2-9.2-20.3-20.5-20.3-11.3,0-20.5,9.1-20.5,20.3v194.3l-19,19.7v-102.2c0-25.5-20.9-46.2-46.7-46.2-10.4,0-20.4,3.4-28.7,9.9-36.5,28.4-67.5,83.1-92.3,162.7-19.2,61.7-31,126.4-37.4,169.7-2.3,15.5 2.3,31.2 12.7,43.1 10.3,11.9 25.3,18.7 41.2,18.7h35.6c9.2,0 17.4-6.1 19.8-14.9 5.8-20.9 23.6-36.4 45.1-40.1 21-3.6 17-25.3 17-26.8 0-18.5 9.2-35.7 24.7-46.1 5.6-3.8 9-10.1 9-16.9v-52.4l38.6-39.8 40,41.4v50.8c0,6.7 3.4,13.1 9,16.9 15.5,10.4 24.7,27.7 24.7,46.1 0,1.5-4,23.1 17,26.8 21.5,3.7 39.3,19.2 45.1,40.1 2.5,8.8 10.6,14.9 19.8,14.9h35.6c15.9,0 30.9-6.8 41.3-18.7 10.3-11.9 14.9-27.6 12.6-43.1zm-324.8-93c-19,16.3-30.9,39.1-33.3,63.9-24.4,8.7-44.5,26.8-55.5,50.1h-21.3c-5.3,0-8.6-2.9-10.1-4.6-1.5-1.7-3.9-5.4-3.1-10.6 6.2-41.9 17.6-104.3 36-163.6 21.9-70.5 49.1-119.8 78.4-142.6 1.1-0.8 2.1-1.2 3.3-1.2 1.8,0 5.6,1.3 5.6,5.4v203.2zm281,109.5c-1.5,1.7-4.8,4.6-10.1,4.6h-21.3c-11-23.3-31-41.5-55.5-50.1-2.4-24.8-14.3-47.6-33.3-63.9v-203.2c0-4.1 3.7-5.4 5.6-5.4 1.2,0 2.3,0.4 3.3,1.2 29.3,22.8 56.5,72.1 78.4,142.6 18.5,59.3 29.8,121.7 36,163.6 0.8,5.2-1.6,8.9-3.1,10.6z"/>
  </g>
</svg>
