<svg width="55" height="48" viewBox="0 0 55 48" fill="none" xmlns="http://www.w3.org/2000/svg">
<path d="M12.0318 9.51538C14.0269 6.43494 13.5281 6.43494 17.0194 4.89472C17.8506 4.89472 19.6127 4.58668 20.0117 3.3545C20.5105 1.81428 23.503 1.30087 26.9943 3.3545C30.4856 5.40813 37.4682 6.43494 40.4607 6.94835C43.4532 7.46175 41.4582 13.1092 40.4607 15.6763C39.4632 18.2433 44.4508 16.7031 48.4408 17.7299C52.4309 18.7567 53.9271 27.4846 52.4309 30.0516C50.9346 32.6187 49.9371 31.5918 47.4433 31.5918C44.9495 31.5918 44.4508 33.1321 45.947 34.6723C47.4433 36.2125 43.952 37.7527 44.4508 39.8064C44.9495 41.86 38.9644 45.4538 35.4731 45.9673C31.9819 46.4807 31.9819 40.8332 29.4881 37.7527C26.9943 34.6723 24.5005 40.8332 22.0067 40.8332C19.513 40.8332 19.0142 36.2125 17.0194 37.7527C15.0246 39.293 10.5356 38.2662 5.04927 33.1321C-0.43705 27.998 3.05424 14.136 3.553 11.569C4.05175 9.00197 10.0368 12.5958 12.0318 9.51538Z" stroke="#1D79BE" stroke-width="3"/>
</svg>
